<?xml version="1.0" standalone="no"?>
<!DOCTYPE svg PUBLIC "-//W3C//DTD SVG 20010904//EN"
 "http://www.w3.org/TR/2001/REC-SVG-20010904/DTD/svg10.dtd">
<svg version="1.0" xmlns="http://www.w3.org/2000/svg"
 width="1280.000000pt" height="1179.000000pt" viewBox="0 0 1280.000000 1179.000000"
 preserveAspectRatio="xMidYMid meet">
<metadata>
Created by potrace 1.15, written by Peter Selinger 2001-2017
</metadata>
<g transform="translate(0.000000,1179.000000) scale(0.100000,-0.100000)"
fill="#000000" stroke="none">
<path d="M6313 11763 c-23 -16 -57 -48 -77 -72 -204 -246 -452 -1018 -505
-1576 -27 -275 -34 -870 -25 -2015 5 -630 7 -1181 4 -1225 l-5 -80 -80 -54
c-44 -30 -152 -104 -240 -165 -156 -107 -282 -179 -337 -192 -24 -5 -28 -2
-34 23 -12 45 -9 108 11 249 18 128 18 133 0 180 -43 115 -137 224 -233 271
-51 25 -67 28 -162 28 -95 0 -110 -3 -164 -29 -109 -53 -221 -195 -248 -315
-8 -36 -13 -126 -12 -251 0 -161 4 -213 22 -297 12 -55 22 -112 22 -126 0 -27
-14 -34 -175 -93 -55 -19 -188 -67 -295 -106 -212 -76 -826 -288 -1560 -538
-1073 -365 -1617 -554 -1785 -619 -140 -54 -192 -128 -180 -260 4 -47 2 -87
-4 -104 -6 -15 -62 -110 -125 -210 -63 -100 -118 -195 -122 -212 l-7 -30 28
25 c15 14 83 89 152 167 144 164 113 149 378 188 656 95 1791 269 1898 290
132 26 159 24 180 -11 5 -9 26 -14 53 -14 29 0 54 -7 68 -18 21 -16 35 -16
170 -7 81 6 151 8 155 5 4 -3 11 -34 16 -70 4 -36 11 -90 14 -120 9 -68 15
-56 41 90 12 63 26 120 31 127 6 6 33 13 62 16 29 2 102 9 162 16 401 42 627
62 633 56 7 -7 21 -91 29 -168 3 -38 9 -65 14 -60 4 4 15 58 24 118 9 61 21
115 28 122 7 6 62 18 124 26 104 14 114 17 140 46 24 27 38 33 108 42 104 15
339 -7 342 -31 1 -8 7 -68 13 -132 7 -65 16 -118 20 -118 10 0 38 93 49 168
12 73 16 82 41 82 14 0 20 -8 22 -33 l3 -32 115 -12 c63 -7 201 -24 305 -38
105 -14 217 -25 250 -25 l60 0 -4 -640 c-8 -1453 55 -2341 191 -2699 21 -57
38 -113 36 -125 -3 -21 -120 -78 -1093 -530 -159 -74 -436 -203 -615 -286
-178 -83 -328 -156 -332 -163 -10 -16 -10 -197 0 -197 4 0 34 5 67 10 222 36
2174 286 2290 292 l50 3 31 -64 c17 -36 39 -68 50 -71 27 -10 64 6 64 27 0 27
100 387 111 397 6 6 13 6 19 0 7 -7 0 -51 -24 -140 -19 -71 -32 -132 -30 -135
5 -9 57 -16 294 -39 113 -11 284 -29 380 -40 519 -58 925 -105 1261 -145 207
-25 392 -45 412 -45 35 0 35 0 41 54 8 63 0 120 -20 137 -7 6 -330 152 -716
324 -387 172 -788 352 -893 399 -104 48 -246 113 -314 143 l-124 56 6 72 c3
39 28 166 55 281 89 368 132 748 162 1414 26 597 21 1642 -8 1697 -9 16 -8 24
3 33 11 9 16 7 25 -10 6 -11 15 -18 19 -16 4 3 140 23 302 45 437 61 393 51
399 86 3 18 12 31 23 33 22 4 38 -33 67 -160 12 -54 25 -98 29 -98 10 0 31
147 31 212 0 27 6 53 14 61 24 23 197 35 379 26 l67 -4 -2 -35 -3 -35 90 -7
c115 -9 150 -15 164 -31 6 -7 20 -60 32 -118 12 -57 25 -108 29 -112 4 -4 12
39 20 95 17 137 20 142 79 134 25 -4 210 -22 410 -41 200 -19 365 -36 366 -37
2 -2 17 -61 35 -133 18 -71 35 -134 38 -140 9 -15 20 48 28 158 4 54 10 100
15 102 4 3 74 -2 155 -10 l147 -16 23 22 c20 18 31 21 70 15 44 -6 46 -5 57
24 7 20 17 28 26 25 50 -19 447 -76 1801 -255 l465 -61 138 -142 c76 -78 146
-154 155 -169 19 -32 32 -36 32 -9 0 22 -68 147 -108 199 -111 143 -148 223
-163 351 -13 115 -43 179 -104 221 -64 44 -155 76 -570 197 -198 57 -452 134
-565 169 -446 141 -2703 898 -2721 913 -20 16 -20 16 1 131 27 145 37 359 21
471 -16 110 -49 245 -71 289 -60 118 -218 189 -361 162 -183 -34 -334 -176
-369 -346 -8 -41 -10 -111 -5 -237 7 -160 6 -179 -9 -185 -10 -4 -29 4 -49 19
-18 14 -62 38 -98 54 -79 36 -271 152 -395 239 -203 141 -229 210 -200 537 13
149 16 354 16 1270 0 1104 -8 1490 -35 1672 -26 170 -157 651 -264 965 -148
437 -266 640 -372 640 -14 0 -44 -12 -66 -27z"/>
</g>
</svg>
