<svg xmlns="http://www.w3.org/2000/svg" xmlnsClink="http://www.w3.org/1999/xlink" version="1.1" width="1080" height="1920" viewBox="0 0 1080 1920" xmlSpace="preserve">
<desc>Created with Fabric.js 3.5.0</desc>
<defs>
</defs>
<rect x="0" y="0" width="100%" height="100%" fill="#ffffff"/>
<g transform="matrix(4.266 0 0 2.4263 536.6684 767.0143)" id="451765">
<path style="stroke: rgb(0,153,255); stroke-width: 5; stroke-dasharray: none; stroke-linecap: butt; stroke-dashoffset: 0; stroke-linejoin: miter; stroke-miterlimit: 4; is-custom-font: none; font-file-url: none; fill: none; fill-rule: nonzero; opacity: 1;" vector-effect="non-scaling-stroke" transform=" translate(-79, -78.9999)" d="M 154.685 2.50049 H 154.711 L 154.738 2.49994 C 155.15 2.49126 155.491 2.81853 155.5 3.2304 L 155.5 3.23069 C 155.5 3.24095 155.5 3.25176 155.5 3.26283 L 155.499 3.28886 V 3.3149 V 154.686 C 155.499 155.135 155.135 155.5 154.685 155.5 H 3.31409 C 2.86449 155.5 2.5 155.135 2.5 154.686 V 3.3149 C 2.5 2.86483 2.86465 2.50049 3.31409 2.50049 H 154.685 Z" stroke-linecap="round"/>
</g>
<g transform="matrix(4.2442 0 0 2.4263 538.3455 1680.8413)" id="560794">
<path style="stroke: rgb(0,153,255); stroke-width: 5; stroke-dasharray: none; stroke-linecap: butt; stroke-dashoffset: 0; stroke-linejoin: miter; stroke-miterlimit: 4; is-custom-font: none; font-file-url: none; fill: none; fill-rule: nonzero; opacity: 1;" vector-effect="non-scaling-stroke" transform=" translate(-79, -78.9999)" d="M 154.685 2.50049 H 154.711 L 154.738 2.49994 C 155.15 2.49126 155.491 2.81853 155.5 3.2304 L 155.5 3.23069 C 155.5 3.24095 155.5 3.25176 155.5 3.26283 L 155.499 3.28886 V 3.3149 V 154.686 C 155.499 155.135 155.135 155.5 154.685 155.5 H 3.31409 C 2.86449 155.5 2.5 155.135 2.5 154.686 V 3.3149 C 2.5 2.86483 2.86465 2.50049 3.31409 2.50049 H 154.685 Z" stroke-linecap="round"/>
</g>
<g transform="matrix(4.2658 0 0 2.4263 539.9979 1226.3893)" id="609134">
<path style="stroke: rgb(0,153,255); stroke-width: 5; stroke-dasharray: none; stroke-linecap: butt; stroke-dashoffset: 0; stroke-linejoin: miter; stroke-miterlimit: 4; is-custom-font: none; font-file-url: none; fill: none; fill-rule: nonzero; opacity: 1;" vector-effect="non-scaling-stroke" transform=" translate(-79, -78.9999)" d="M 154.685 2.50049 H 154.711 L 154.738 2.49994 C 155.15 2.49126 155.491 2.81853 155.5 3.2304 L 155.5 3.23069 C 155.5 3.24095 155.5 3.25176 155.5 3.26283 L 155.499 3.28886 V 3.3149 V 154.686 C 155.499 155.135 155.135 155.5 154.685 155.5 H 3.31409 C 2.86449 155.5 2.5 155.135 2.5 154.686 V 3.3149 C 2.5 2.86483 2.86465 2.50049 3.31409 2.50049 H 154.685 Z" stroke-linecap="round"/>
</g>
<g transform="matrix(4.2828 0 0 2.4263 539.626 320.6778)" id="324730">
<path style="stroke: rgb(0,153,255); stroke-width: 5; stroke-dasharray: none; stroke-linecap: butt; stroke-dashoffset: 0; stroke-linejoin: miter; stroke-miterlimit: 4; is-custom-font: none; font-file-url: none; fill: none; fill-rule: nonzero; opacity: 1;" vector-effect="non-scaling-stroke" transform=" translate(-79, -78.9999)" d="M 154.685 2.50049 H 154.711 L 154.738 2.49994 C 155.15 2.49126 155.491 2.81853 155.5 3.2304 L 155.5 3.23069 C 155.5 3.24095 155.5 3.25176 155.5 3.26283 L 155.499 3.28886 V 3.3149 V 154.686 C 155.499 155.135 155.135 155.5 154.685 155.5 H 3.31409 C 2.86449 155.5 2.5 155.135 2.5 154.686 V 3.3149 C 2.5 2.86483 2.86465 2.50049 3.31409 2.50049 H 154.685 Z" stroke-linecap="round"/>
</g>
</svg>